<svg width="17" height="16" viewBox="0 0 17 16" fill="none" xmlns="http://www.w3.org/2000/svg">
<g clip-path="url(#clip0_62_1467)">
<path d="M16.2684 0H0V16H16.2684V0Z" fill="white" fill-opacity="0.01"/>
<path d="M8.13422 14.6667C8.13422 14.6667 13.2181 10.6667 13.2181 6.33337C13.2181 3.57194 10.942 1.33337 8.13422 1.33337C5.32646 1.33337 3.05033 3.57194 3.05033 6.33337C3.05033 10.6667 8.13422 14.6667 8.13422 14.6667Z" stroke="#736F75" stroke-linejoin="round"/>
<path d="M8.13423 8.33337C9.25733 8.33337 10.1678 7.43794 10.1678 6.33337C10.1678 5.22881 9.25733 4.33337 8.13423 4.33337C7.01113 4.33337 6.10067 5.22881 6.10067 6.33337C6.10067 7.43794 7.01113 8.33337 8.13423 8.33337Z" stroke="#736F75" stroke-linejoin="round"/>
</g>
<defs>
<clipPath id="clip0_62_1467">
<rect width="16.2684" height="16" fill="white"/>
</clipPath>
</defs>
</svg>
