<svg width="12" height="12" viewBox="0 0 12 12" fill="none" xmlns="http://www.w3.org/2000/svg">
<path d="M3.71308 0.509766C3.9503 0.509766 4.16888 0.638425 4.28405 0.84585L5.08287 2.28481C5.18746 2.47322 5.19239 2.7011 5.096 2.89385L4.32643 4.43302C4.32643 4.43302 4.54945 5.5796 5.48281 6.51296C6.4162 7.44631 7.55892 7.66548 7.55892 7.66548L9.09783 6.89604C9.29071 6.79958 9.51876 6.80458 9.70723 6.90936L11.1503 7.71165C11.3575 7.82688 11.486 8.04533 11.486 8.28242V9.93908C11.486 10.7827 10.7024 11.3921 9.90302 11.1223C8.26122 10.5684 5.71275 9.51361 4.09747 7.89829C2.48219 6.28301 1.42741 3.73454 0.873434 2.09278C0.603713 1.2934 1.21305 0.509766 2.05669 0.509766H3.71308Z" stroke="#736F75" stroke-linejoin="round"/>
</svg>
